<?xml version="1.0" encoding="UTF-8"?>
<svg id="Layer_1" xmlns="http://www.w3.org/2000/svg" version="1.1" viewBox="650.5 236.67 620.49 596.1">
  <!-- Generator: Adobe Illustrator 30.0.0, SVG Export Plug-In . SVG Version: 2.1.1 Build 123)  -->
  <defs>
    <style>
      .st0, .st1 {
        fill: #db4140;
      }

      .st1, .st2, .st3 {
        fill-rule: evenodd;
      }

      .st4 {
        fill: none;
      }

      .st5 {
        fill: #414142;
      }

      .st2, .st6 {
        fill: #0a509f;
      }

      .st3 {
        fill: #51b748;
      }
    </style>
  </defs>
  <g>
    <g>
      <g>
        <g>
          <path class="st3" d="M790.12,403.38c8.78-17.42,30.03-24.42,47.45-15.64,17.42,8.78,24.42,30.03,15.64,47.45-8.78,17.42-30.03,24.42-47.45,15.64-17.42-8.78-24.42-30.03-15.64-47.45"/>
          <path class="st3" d="M956.47,437.26c-47.05-29.21-90.28-73.29-150.91-136.41-6.67,6.02-10.35,13.38-11.11,22.02,38.64,36.05,89.86,89.08,118.35,137.81.68,1.16.79,2.53.4,3.8-.06.21-.13.41-.22.62-.02.05-.03.1-.05.15,0,.02-.02.03-.03.05,0,.02-.01.04-.02.05-.02.05-.06.09-.09.13-.11.19-.23.37-.37.55-.78,1.06-1.95,1.79-3.29,1.94-56.13,6.07-129.22-3.59-181.18-13.22-6.63,6.04-9.29,13.84-11.11,22.02,114.01,14.73,183.78,24.86,245.44,63.44l-5.83-102.95Z"/>
        </g>
        <g>
          <path class="st1" d="M1134.7,403.38c-8.78-17.42-30.03-24.42-47.45-15.64-17.42,8.78-24.42,30.03-15.64,47.45,8.78,17.42,30.03,24.42,47.45,15.64,17.42-8.78,24.42-30.03,15.64-47.45"/>
          <path class="st1" d="M968.35,437.26c47.05-29.21,90.28-73.29,150.91-136.41,6.67,6.02,10.35,13.38,11.11,22.02-38.64,36.05-89.86,89.08-118.35,137.81-.68,1.16-.79,2.53-.4,3.8.06.21.13.41.22.62.02.05.03.1.05.15,0,.02.02.03.03.05,0,.02.01.04.02.05.02.05.06.09.09.13.11.19.23.37.37.55.78,1.06,1.95,1.79,3.29,1.94,56.13,6.07,129.22-3.59,181.18-13.22,6.63,6.04,9.29,13.84,11.11,22.02-114.01,14.73-183.78,24.86-245.44,63.44l5.83-102.95Z"/>
        </g>
      </g>
      <g>
        <path class="st2" d="M962.41,302.3c19.51,0,35.33,15.82,35.33,35.33s-15.82,35.33-35.33,35.33-35.33-15.82-35.33-35.33,15.82-35.33,35.33-35.33"/>
        <path class="st2" d="M1060.92,269.92c-8.38-3.25-16.6-3.21-24.67,0-14.8,50.73-39.08,120.34-69.77,167.73-.73,1.13-1.91,1.85-3.21,2.07-.21.04-.43.07-.65.08-.05,0-.1.02-.16.02-.02,0-.04,0-.06,0-.02,0-.04,0-.06,0-.05,0-.1-.02-.16-.02-.22-.01-.44-.04-.65-.08-1.3-.22-2.48-.94-3.21-2.07-30.69-47.38-54.97-117-69.77-167.73-8.38-3.2-16.54-2.06-24.67,0,51.11,145.17,73.89,215.81,36.56,325.09h27.4c3.81-10.46,17.97-32.35,26.06-45.95,4.06-6.82,9.75-6.82,14.14,0,8.56,13.31,22.31,35.47,26.07,45.95h30.23c-37.34-109.28-14.56-179.92,36.56-325.09Z"/>
      </g>
    </g>
    <g>
      <path class="st5" d="M1224.36,695.69c.81-.81,1.58-1.67,2.3-2.57.72-.9,1.44-1.85,2.16-2.84l12.17,7.03c-1.89,2.79-4.1,5.54-6.63,8.25-4.32,4.33-9.33,7.71-15.01,10.14-5.68,2.43-11.62,3.65-17.84,3.65s-12.44-1.24-18.12-3.72c-5.68-2.48-10.66-5.84-14.94-10.07-4.28-4.24-7.66-9.19-10.14-14.87-2.48-5.68-3.72-11.72-3.72-18.12s1.24-12.3,3.72-17.98c2.48-5.68,5.86-10.66,10.14-14.94,4.28-4.28,9.26-7.66,14.94-10.14,5.68-2.48,11.72-3.72,18.12-3.72s12.21,1.26,17.98,3.79c.81.36,1.6.72,2.37,1.08.77.36,1.51.77,2.23,1.22l-7.7,11.76c-.45-.18-.86-.38-1.22-.61-.36-.23-.77-.43-1.22-.61-1.89-.9-3.9-1.56-6.02-1.96-2.12-.41-4.26-.61-6.42-.61-4.51,0-8.74.88-12.71,2.63-3.97,1.76-7.44,4.12-10.41,7.1-2.97,2.97-5.34,6.44-7.1,10.41-1.76,3.97-2.64,8.16-2.64,12.57s.88,8.74,2.64,12.71c1.76,3.96,4.12,7.44,7.1,10.41,2.97,2.97,6.44,5.32,10.41,7.03,3.96,1.71,8.2,2.57,12.71,2.57s8.7-.86,12.57-2.57c3.88-1.71,7.3-4.06,10.27-7.03"/>
      <path class="st5" d="M1053.9,672.57c0-19.65-8.74-29.47-26.23-29.47h-22.31v62.05h22.31c17.48,0,26.23-10.86,26.23-32.58ZM991.31,629.04h32.44c29.65,0,44.48,14.51,44.48,43.53,0,31.18-14.74,46.78-44.21,46.78h-32.71v-90.3Z"/>
      <path class="st5" d="M890.84,691.9c0-8.56-5.14-12.84-15.41-12.84h-9.87c-18.47,0-27.71-8.65-27.71-25.96,0-16.04,9.19-24.06,27.58-24.06h31.63v14.06h-33.39c-8.02,0-12.03,3.42-12.03,10.27,0,7.75,4.01,11.63,12.03,11.63h10c20.64,0,30.96,9.01,30.96,27.04s-10.28,27.31-30.82,27.31h-35.15v-14.06h36.77c10.27,0,15.41-4.46,15.41-13.38Z"/>
      <polygon class="st5" points="743.18 719.34 697.89 658.78 697.89 719.34 683.83 719.34 683.83 629.04 692.48 629.04 737.77 689.6 737.77 615.11 751.56 615.11 751.56 719.34 743.18 719.34"/>
      <path class="st3" d="M794.75,662.06c6.7,0,12.13,5.44,12.13,12.14s-5.43,12.13-12.13,12.13-12.14-5.44-12.14-12.13,5.44-12.14,12.14-12.14Z"/>
      <path class="st6" d="M948.07,662.06c6.7,0,12.14,5.44,12.14,12.14s-5.44,12.13-12.14,12.13-12.13-5.44-12.13-12.13,5.43-12.14,12.13-12.14Z"/>
      <path class="st0" d="M1111.42,662.06c6.7,0,12.14,5.44,12.14,12.14s-5.44,12.13-12.14,12.13-12.14-5.44-12.14-12.13,5.44-12.14,12.14-12.14Z"/>
      <g>
        <polygon class="st4" points="917.29 655.8 904.62 655.8 923.01 674.19 935.68 674.19 917.29 655.8"/>
        <polygon class="st4" points="917.29 692.58 904.62 692.58 923.01 674.19 935.68 674.19 917.29 692.58"/>
      </g>
      <g>
        <polygon class="st4" points="764.22 655.8 751.56 655.8 769.95 674.19 782.61 674.19 764.22 655.8"/>
        <polygon class="st4" points="764.22 692.58 751.56 692.58 769.95 674.19 782.61 674.19 764.22 692.58"/>
      </g>
      <g>
        <polygon class="st4" points="825.13 655.8 837.79 655.8 819.4 674.19 806.74 674.19 825.13 655.8"/>
        <polygon class="st4" points="825.13 692.58 837.79 692.58 819.4 674.19 806.74 674.19 825.13 692.58"/>
      </g>
      <g>
        <polygon class="st4" points="978.64 655.8 991.31 655.8 972.92 674.19 960.25 674.19 978.64 655.8"/>
        <polygon class="st4" points="978.64 692.58 991.31 692.58 972.92 674.19 960.25 674.19 978.64 692.58"/>
      </g>
      <g>
        <polygon class="st4" points="1080.89 655.8 1068.23 655.8 1086.62 674.19 1099.28 674.19 1080.89 655.8"/>
        <polygon class="st4" points="1080.89 692.58 1068.23 692.58 1086.62 674.19 1099.28 674.19 1080.89 692.58"/>
      </g>
      <g>
        <polygon class="st4" points="1141.94 655.8 1154.61 655.8 1136.22 674.19 1123.55 674.19 1141.94 655.8"/>
        <polygon class="st4" points="1141.94 692.58 1154.61 692.58 1136.22 674.19 1123.55 674.19 1141.94 692.58"/>
      </g>
    </g>
  </g>
  <g>
    <polygon class="st0" points="1127.01 764.16 1138.7 747.79 1150.38 764.16 1127.01 764.16"/>
    <g>
      <path class="st5" d="M680.5,802.2v-28.86h20.82c2.1,0,3.91.3,5.42.91,1.51.61,2.68,1.5,3.52,2.67.83,1.17,1.25,2.61,1.25,4.31,0,1.35-.3,2.58-.89,3.7-.59,1.12-1.52,2.04-2.77,2.77s-2.92,1.19-4.99,1.37l.49-.4c1.48.03,2.7.24,3.66.63.96.39,1.73.98,2.32,1.78.59.8,1.08,1.83,1.46,3.09l2.38,8.04h-8.04l-2.02-6.91c-.32-1.13-.84-1.99-1.54-2.59-.7-.59-1.73-.89-3.07-.89h-10.27v10.39h-7.72ZM688.22,785.95h11.76c.62,0,1.19-.11,1.72-.34.53-.23.95-.59,1.27-1.09.32-.5.48-1.15.48-1.96,0-1.21-.36-2.08-1.07-2.59-.71-.51-1.52-.77-2.41-.77h-11.76v6.75Z"/>
      <path class="st5" d="M731.31,802.2v-28.86h28.42v5.86h-20.7v5.66h19.12v5.62h-19.12v5.86h20.7v5.86h-28.42Z"/>
      <path class="st5" d="M776.39,802.2l14.11-28.86h9.14l14.07,28.86h-8.41l-11.56-24.9h2.06l-11.64,24.9h-7.76ZM784.71,796.17v-5.66h20.01v5.66h-20.01Z"/>
      <path class="st5" d="M831.04,802.2v-28.86h19.48c2.16,0,4.16.32,6.02.95,1.86.63,3.49,1.57,4.89,2.81,1.4,1.24,2.5,2.76,3.29,4.55.79,1.79,1.19,3.83,1.19,6.12,0,1.86-.26,3.54-.77,5.05-.51,1.51-1.23,2.84-2.16,4-.93,1.16-2.04,2.14-3.33,2.93-1.29.79-2.71,1.4-4.25,1.82-1.54.42-3.17.63-4.89.63h-19.48ZM838.76,796.34h10.71c.83,0,1.66-.11,2.49-.32.82-.21,1.59-.54,2.3-.97.71-.43,1.35-.98,1.9-1.66.55-.67.98-1.48,1.29-2.41.31-.93.46-2,.46-3.21,0-1.51-.24-2.81-.71-3.9s-1.12-1.98-1.94-2.67-1.73-1.19-2.73-1.52c-1-.32-2.02-.49-3.07-.49h-10.71v17.14Z"/>
      <path class="st5" d="M893.3,802.2v-10.79l-13.62-18.07h8.97l10.83,14.96h-3.92l10.75-14.96h8.25l-13.54,18.07v10.79h-7.72Z"/>
      <path class="st5" d="M967.32,802.2v-23.04h-12.17v-5.82h32.02v5.82h-12.13v23.04h-7.72Z"/>
      <path class="st5" d="M1021.45,802.76c-3.77,0-7.05-.61-9.84-1.82-2.79-1.21-4.95-2.94-6.49-5.2-1.54-2.25-2.3-4.91-2.3-7.98,0-1.54.2-2.97.59-4.31s.96-2.56,1.72-3.68c.75-1.12,1.68-2.11,2.77-2.97,1.09-.86,2.32-1.6,3.7-2.2,1.37-.61,2.88-1.06,4.53-1.37,1.64-.31,3.42-.46,5.34-.46,3.77,0,7.05.61,9.84,1.84,2.79,1.23,4.95,2.96,6.47,5.2,1.52,2.24,2.28,4.89,2.28,7.96,0,1.54-.19,2.97-.57,4.3-.38,1.33-.95,2.56-1.72,3.68-.77,1.12-1.69,2.11-2.77,2.97-1.08.86-2.31,1.6-3.7,2.2s-2.9,1.07-4.55,1.37c-1.64.31-3.41.47-5.3.47ZM1021.45,796.9c1.08,0,2.08-.09,3.01-.28.93-.19,1.79-.46,2.59-.83.79-.36,1.5-.81,2.1-1.33s1.12-1.12,1.56-1.8c.43-.67.75-1.42.97-2.24.21-.82.32-1.7.32-2.65,0-1.91-.43-3.55-1.29-4.91-.86-1.36-2.08-2.41-3.66-3.13-1.58-.73-3.44-1.09-5.6-1.09-1.08,0-2.09.09-3.03.28-.94.19-1.81.46-2.59.83-.78.36-1.48.81-2.1,1.33-.62.53-1.15,1.12-1.58,1.8s-.75,1.42-.97,2.22c-.22.81-.32,1.7-.32,2.67,0,1.89.43,3.52,1.29,4.89.86,1.37,2.1,2.42,3.7,3.15,1.6.73,3.47,1.09,5.6,1.09Z"/>
      <path class="st5" d="M1084.03,802.2v-28.86h20.82c2.1,0,3.91.3,5.42.91,1.51.61,2.68,1.5,3.52,2.67.83,1.17,1.25,2.61,1.25,4.31,0,1.35-.3,2.58-.89,3.7-.59,1.12-1.52,2.04-2.77,2.77s-2.92,1.19-4.99,1.37l.49-.4c1.48.03,2.7.24,3.66.63.96.39,1.73.98,2.32,1.78.59.8,1.08,1.83,1.46,3.09l2.38,8.04h-8.04l-2.02-6.91c-.32-1.13-.84-1.99-1.54-2.59-.7-.59-1.73-.89-3.07-.89h-10.27v10.39h-7.72ZM1091.75,785.95h11.76c.62,0,1.19-.11,1.72-.34.53-.23.95-.59,1.27-1.09.32-.5.48-1.15.48-1.96,0-1.21-.36-2.08-1.07-2.59-.71-.51-1.52-.77-2.41-.77h-11.76v6.75Z"/>
      <path class="st5" d="M1134.84,802.2v-28.86h7.72v28.86h-7.72Z"/>
      <path class="st5" d="M1177.53,802.76c-2.64,0-4.97-.22-6.99-.65s-3.74-1.05-5.15-1.86-2.49-1.79-3.23-2.93-1.15-2.42-1.23-3.82h7.96c.16.57.47,1.08.93,1.56.46.47,1.04.88,1.76,1.21s1.57.6,2.57.79,2.13.28,3.4.28c1.64,0,3.05-.14,4.22-.42,1.17-.28,2.08-.69,2.73-1.23.65-.54.97-1.17.97-1.9,0-.46-.11-.85-.32-1.17-.22-.32-.55-.59-.99-.81-.45-.21-1.02-.36-1.72-.44l-10.03-1.25c-1.75-.22-3.31-.54-4.69-.97-1.37-.43-2.52-.98-3.44-1.66-.92-.67-1.62-1.5-2.1-2.47-.49-.97-.73-2.09-.73-3.36,0-1.38.35-2.61,1.05-3.72.7-1.1,1.72-2.04,3.07-2.81,1.35-.77,2.97-1.35,4.87-1.76,1.9-.4,4.06-.61,6.49-.61s4.56.2,6.41.59c1.85.39,3.41.96,4.69,1.7,1.28.74,2.26,1.63,2.95,2.67.69,1.04,1.07,2.19,1.15,3.46h-8c-.11-.62-.45-1.15-1.03-1.6s-1.39-.79-2.45-1.03c-1.05-.24-2.36-.36-3.92-.36s-2.86.12-3.96.36c-1.11.24-1.93.59-2.49,1.05-.55.46-.83,1.01-.83,1.66,0,.46.14.87.42,1.23.28.36.68.66,1.19.89.51.23,1.12.4,1.82.51l10.39,1.25c2.21.27,4.07.75,5.58,1.46,1.51.7,2.66,1.62,3.46,2.75.79,1.13,1.19,2.51,1.19,4.12s-.34,2.88-1.03,4.02c-.69,1.15-1.71,2.12-3.07,2.91-1.36.79-3.03,1.39-5.01,1.78-1.98.39-4.26.59-6.85.59Z"/>
      <path class="st5" d="M1211.77,802.2v-28.86h28.42v5.86h-20.7v5.66h19.12v5.62h-19.12v5.86h20.7v5.86h-28.42Z"/>
    </g>
  </g>
</svg>